<?xml version="1.0" encoding="UTF-8" standalone="no"?>
<!-- Uploaded to: SVG Repo, www.svgrepo.com, Generator: SVG Repo Mixer Tools -->

<svg
   fill="#000000"
   version="1.1"
   id="Capa_1"
   width="800px"
   height="800px"
   viewBox="0 0 902.86 902.86"
   xml:space="preserve"
   sodipodi:docname="cart-icon-white.svg"
   inkscape:version="1.4.2 (ebf0e940d0, 2025-05-08)"
   xmlns:inkscape="http://www.inkscape.org/namespaces/inkscape"
   xmlns:sodipodi="http://sodipodi.sourceforge.net/DTD/sodipodi-0.dtd"
   xmlns="http://www.w3.org/2000/svg"
   xmlns:svg="http://www.w3.org/2000/svg"><defs
   id="defs3" /><sodipodi:namedview
   id="namedview3"
   pagecolor="#ffffff"
   bordercolor="#000000"
   borderopacity="0.25"
   inkscape:showpageshadow="2"
   inkscape:pageopacity="0.0"
   inkscape:pagecheckerboard="0"
   inkscape:deskcolor="#d1d1d1"
   inkscape:zoom="1.005"
   inkscape:cx="399.50249"
   inkscape:cy="519.40299"
   inkscape:window-width="1920"
   inkscape:window-height="1008"
   inkscape:window-x="0"
   inkscape:window-y="0"
   inkscape:window-maximized="1"
   inkscape:current-layer="Capa_1" />
<g
   id="g3">
	<g
   id="g2">
		<path
   d="M671.504,577.829l110.485-432.609H902.86v-68H729.174L703.128,179.2L0,178.697l74.753,399.129h596.751V577.829z     M685.766,247.188l-67.077,262.64H131.199L81.928,246.756L685.766,247.188z"
   id="path1"
   style="stroke:#ffffff;stroke-opacity:1;fill:#ffffff;fill-opacity:1" />
		<path
   d="M578.418,825.641c59.961,0,108.743-48.783,108.743-108.744s-48.782-108.742-108.743-108.742H168.717    c-59.961,0-108.744,48.781-108.744,108.742s48.782,108.744,108.744,108.744c59.962,0,108.743-48.783,108.743-108.744    c0-14.4-2.821-28.152-7.927-40.742h208.069c-5.107,12.59-7.928,26.342-7.928,40.742    C469.675,776.858,518.457,825.641,578.418,825.641z M209.46,716.897c0,22.467-18.277,40.744-40.743,40.744    c-22.466,0-40.744-18.277-40.744-40.744c0-22.465,18.277-40.742,40.744-40.742C191.183,676.155,209.46,694.432,209.46,716.897z     M619.162,716.897c0,22.467-18.277,40.744-40.743,40.744s-40.743-18.277-40.743-40.744c0-22.465,18.277-40.742,40.743-40.742    S619.162,694.432,619.162,716.897z"
   id="path2"
   style="fill:#ffffff;fill-opacity:1" />
	</g>
</g>
</svg>
